<svg xmlns="http://www.w3.org/2000/svg" viewBox="0 0 100 100" preserveAspectRatio="xMidYMid" width="200" height="200" style="shape-rendering: auto; display: block; background: rgba(255, 255, 255, 0.176);" xmlns:xlink="http://www.w3.org/1999/xlink"><g><g transform="rotate(0 50 50)">
  <rect fill="#3dbf12" height="1" width="42" ry="0" rx="0" y="26.5" x="29">
    <animate repeatCount="indefinite" begin="-1.5211640211640212s" dur="1.5873015873015872s" keyTimes="0;1" values="1;0" attributeName="opacity"></animate>
  </rect>
</g><g transform="rotate(15 50 50)">
  <rect fill="#3dbf12" height="1" width="42" ry="0" rx="0" y="26.5" x="29">
    <animate repeatCount="indefinite" begin="-1.455026455026455s" dur="1.5873015873015872s" keyTimes="0;1" values="1;0" attributeName="opacity"></animate>
  </rect>
</g><g transform="rotate(30 50 50)">
  <rect fill="#3dbf12" height="1" width="42" ry="0" rx="0" y="26.5" x="29">
    <animate repeatCount="indefinite" begin="-1.3888888888888888s" dur="1.5873015873015872s" keyTimes="0;1" values="1;0" attributeName="opacity"></animate>
  </rect>
</g><g transform="rotate(45 50 50)">
  <rect fill="#3dbf12" height="1" width="42" ry="0" rx="0" y="26.5" x="29">
    <animate repeatCount="indefinite" begin="-1.3227513227513226s" dur="1.5873015873015872s" keyTimes="0;1" values="1;0" attributeName="opacity"></animate>
  </rect>
</g><g transform="rotate(60 50 50)">
  <rect fill="#3dbf12" height="1" width="42" ry="0" rx="0" y="26.5" x="29">
    <animate repeatCount="indefinite" begin="-1.2566137566137565s" dur="1.5873015873015872s" keyTimes="0;1" values="1;0" attributeName="opacity"></animate>
  </rect>
</g><g transform="rotate(75 50 50)">
  <rect fill="#3dbf12" height="1" width="42" ry="0" rx="0" y="26.5" x="29">
    <animate repeatCount="indefinite" begin="-1.1904761904761905s" dur="1.5873015873015872s" keyTimes="0;1" values="1;0" attributeName="opacity"></animate>
  </rect>
</g><g transform="rotate(90 50 50)">
  <rect fill="#3dbf12" height="1" width="42" ry="0" rx="0" y="26.5" x="29">
    <animate repeatCount="indefinite" begin="-1.1243386243386242s" dur="1.5873015873015872s" keyTimes="0;1" values="1;0" attributeName="opacity"></animate>
  </rect>
</g><g transform="rotate(105 50 50)">
  <rect fill="#3dbf12" height="1" width="42" ry="0" rx="0" y="26.5" x="29">
    <animate repeatCount="indefinite" begin="-1.0582010582010581s" dur="1.5873015873015872s" keyTimes="0;1" values="1;0" attributeName="opacity"></animate>
  </rect>
</g><g transform="rotate(120 50 50)">
  <rect fill="#3dbf12" height="1" width="42" ry="0" rx="0" y="26.5" x="29">
    <animate repeatCount="indefinite" begin="-0.992063492063492s" dur="1.5873015873015872s" keyTimes="0;1" values="1;0" attributeName="opacity"></animate>
  </rect>
</g><g transform="rotate(135 50 50)">
  <rect fill="#3dbf12" height="1" width="42" ry="0" rx="0" y="26.5" x="29">
    <animate repeatCount="indefinite" begin="-0.9259259259259258s" dur="1.5873015873015872s" keyTimes="0;1" values="1;0" attributeName="opacity"></animate>
  </rect>
</g><g transform="rotate(150 50 50)">
  <rect fill="#3dbf12" height="1" width="42" ry="0" rx="0" y="26.5" x="29">
    <animate repeatCount="indefinite" begin="-0.8597883597883598s" dur="1.5873015873015872s" keyTimes="0;1" values="1;0" attributeName="opacity"></animate>
  </rect>
</g><g transform="rotate(165 50 50)">
  <rect fill="#3dbf12" height="1" width="42" ry="0" rx="0" y="26.5" x="29">
    <animate repeatCount="indefinite" begin="-0.7936507936507936s" dur="1.5873015873015872s" keyTimes="0;1" values="1;0" attributeName="opacity"></animate>
  </rect>
</g><g transform="rotate(180 50 50)">
  <rect fill="#3dbf12" height="1" width="42" ry="0" rx="0" y="26.5" x="29">
    <animate repeatCount="indefinite" begin="-0.7275132275132274s" dur="1.5873015873015872s" keyTimes="0;1" values="1;0" attributeName="opacity"></animate>
  </rect>
</g><g transform="rotate(195 50 50)">
  <rect fill="#3dbf12" height="1" width="42" ry="0" rx="0" y="26.5" x="29">
    <animate repeatCount="indefinite" begin="-0.6613756613756613s" dur="1.5873015873015872s" keyTimes="0;1" values="1;0" attributeName="opacity"></animate>
  </rect>
</g><g transform="rotate(210 50 50)">
  <rect fill="#3dbf12" height="1" width="42" ry="0" rx="0" y="26.5" x="29">
    <animate repeatCount="indefinite" begin="-0.5952380952380952s" dur="1.5873015873015872s" keyTimes="0;1" values="1;0" attributeName="opacity"></animate>
  </rect>
</g><g transform="rotate(225 50 50)">
  <rect fill="#3dbf12" height="1" width="42" ry="0" rx="0" y="26.5" x="29">
    <animate repeatCount="indefinite" begin="-0.5291005291005291s" dur="1.5873015873015872s" keyTimes="0;1" values="1;0" attributeName="opacity"></animate>
  </rect>
</g><g transform="rotate(240 50 50)">
  <rect fill="#3dbf12" height="1" width="42" ry="0" rx="0" y="26.5" x="29">
    <animate repeatCount="indefinite" begin="-0.4629629629629629s" dur="1.5873015873015872s" keyTimes="0;1" values="1;0" attributeName="opacity"></animate>
  </rect>
</g><g transform="rotate(255 50 50)">
  <rect fill="#3dbf12" height="1" width="42" ry="0" rx="0" y="26.5" x="29">
    <animate repeatCount="indefinite" begin="-0.3968253968253968s" dur="1.5873015873015872s" keyTimes="0;1" values="1;0" attributeName="opacity"></animate>
  </rect>
</g><g transform="rotate(270 50 50)">
  <rect fill="#3dbf12" height="1" width="42" ry="0" rx="0" y="26.5" x="29">
    <animate repeatCount="indefinite" begin="-0.33068783068783064s" dur="1.5873015873015872s" keyTimes="0;1" values="1;0" attributeName="opacity"></animate>
  </rect>
</g><g transform="rotate(285 50 50)">
  <rect fill="#3dbf12" height="1" width="42" ry="0" rx="0" y="26.5" x="29">
    <animate repeatCount="indefinite" begin="-0.26455026455026454s" dur="1.5873015873015872s" keyTimes="0;1" values="1;0" attributeName="opacity"></animate>
  </rect>
</g><g transform="rotate(300 50 50)">
  <rect fill="#3dbf12" height="1" width="42" ry="0" rx="0" y="26.5" x="29">
    <animate repeatCount="indefinite" begin="-0.1984126984126984s" dur="1.5873015873015872s" keyTimes="0;1" values="1;0" attributeName="opacity"></animate>
  </rect>
</g><g transform="rotate(315 50 50)">
  <rect fill="#3dbf12" height="1" width="42" ry="0" rx="0" y="26.5" x="29">
    <animate repeatCount="indefinite" begin="-0.13227513227513227s" dur="1.5873015873015872s" keyTimes="0;1" values="1;0" attributeName="opacity"></animate>
  </rect>
</g><g transform="rotate(330 50 50)">
  <rect fill="#3dbf12" height="1" width="42" ry="0" rx="0" y="26.5" x="29">
    <animate repeatCount="indefinite" begin="-0.06613756613756613s" dur="1.5873015873015872s" keyTimes="0;1" values="1;0" attributeName="opacity"></animate>
  </rect>
</g><g transform="rotate(345 50 50)">
  <rect fill="#3dbf12" height="1" width="42" ry="0" rx="0" y="26.5" x="29">
    <animate repeatCount="indefinite" begin="0s" dur="1.5873015873015872s" keyTimes="0;1" values="1;0" attributeName="opacity"></animate>
  </rect>
</g><g></g></g><!-- [ldio] generated by https://loading.io --></svg>